<?xml version="1.0" standalone="no"?>
<!DOCTYPE svg PUBLIC "-//W3C//DTD SVG 20010904//EN"
 "http://www.w3.org/TR/2001/REC-SVG-20010904/DTD/svg10.dtd">
<svg version="1.0" xmlns="http://www.w3.org/2000/svg"
 width="98.000000pt" height="97.000000pt" viewBox="0 0 98.000000 97.000000"
 preserveAspectRatio="xMidYMid meet">
<g transform="translate(0.000000,97.000000) scale(0.100000,-0.100000)"
fill="#632e44" stroke="none">
<path d="M337 963 c-4 -3 -7 -21 -7 -40 l0 -33 163 0 162 0 113 -113 112 -112
0 -180 0 -180 -108 -108 -107 -107 -180 0 -180 0 -108 108 -107 107 0 180 0
179 61 56 61 55 -4 53 -3 54 -102 -89 -102 -88 -1 -211 0 -212 136 -141 136
-141 207 0 206 0 143 143 142 142 0 205 0 205 -138 138 -137 137 -176 0 c-97
0 -179 -3 -182 -7z"/>
<path d="M330 810 l0 -40 138 0 137 0 78 -78 77 -77 0 -130 0 -131 -73 -72
-72 -72 -134 0 -133 0 -74 76 -74 76 0 181 0 181 -40 -39 -40 -39 0 -154 0
-154 97 -104 96 -104 166 0 166 0 102 102 103 103 0 156 0 157 -107 101 -107
101 -153 0 -153 0 0 -40z"/>
<path d="M307 662 l-67 -68 0 -110 0 -110 68 -67 68 -67 106 0 107 0 65 67 64
67 -41 18 -41 19 -44 -46 c-44 -45 -45 -45 -111 -45 -66 0 -67 0 -114 48 l-47
48 0 70 0 70 48 47 48 47 70 0 c68 0 71 -1 109 -40 45 -46 43 -45 92 -25 l37
16 -64 64 -64 65 -111 0 -111 0 -67 -68z"/>
</g>
</svg>
