<svg xmlns="http://www.w3.org/2000/svg" width="130.667" height="129.333" version="1.0" viewBox="0 0 98 97"><g fill="#632e44" transform="matrix(.1 0 0 -.1 0 97)"><path d="M337 963c-4-3-7-21-7-40v-33h325l113-113 112-112V305L772 197 665 90H305L197 198 90 305v359l61 56 61 55-4 53-3 54-102-89L1 705 0 494V282l136-141L272 0h413l143 143 142 142v410L832 833 695 970H519c-97 0-179-3-182-7z"/><path d="M330 810v-40h275l78-78 77-77V354l-73-72-72-72H348l-74 76-74 76v362l-40-39-40-39V338l97-104 96-104h332l102 102 103 103v313L743 749 636 850H330v-40z"/><path d="M307 662l-67-68V374l68-67 68-67h213l65 67 64 67-41 18-41 19-44-46c-44-45-45-45-111-45s-67 0-114 48l-47 48v140l48 47 48 47h70c68 0 71-1 109-40 45-46 43-45 92-25l37 16-64 64-64 65H374l-67-68z"/></g></svg>